<?xml version="1.0" encoding="iso-8859-1"?>
<!-- Generator: Adobe Illustrator 19.0.0, SVG Export Plug-In . SVG Version: 6.00 Build 0)  -->
<svg xmlns="http://www.w3.org/2000/svg" xmlns:xlink="http://www.w3.org/1999/xlink" version="1.1" id="Capa_1" x="0px" y="0px" viewBox="0 0 496 496" style="enable-background:new 0 0 496 496;" xml:space="preserve" width="512px" height="512px">
<g>
	<g>
		<g>
			<path d="M224,424c0,22.056,17.944,40,40,40h32v16h-32v16h192v-16h-32v-16h32c22.056,0,40-17.944,40-40v-24H224V424z M408,480h-96     v-16h96V480z M240,416h240v8c0,13.232-10.768,24-24,24H264c-13.232,0-24-10.768-24-24V416z" fill="#A01D26"/>
			<path d="M456,248H264c-22.056,0-40,17.944-40,40v96h16v-96c0-13.232,10.768-24,24-24h192c13.232,0,24,10.768,24,24v96h16v-96     C496,265.944,478.056,248,456,248z" fill="#A01D26"/>
			<path d="M40,216h32v16H40v16h192v-16h-32v-16h32c22.056,0,40-17.944,40-40v-24H0v24C0,198.056,17.944,216,40,216z M184,232H88     v-16h96V232z M16,168h240v8c0,13.232-10.768,24-24,24H40c-13.232,0-24-10.768-24-24V168z" fill="#A01D26"/>
			<path d="M16,40c0-13.232,10.768-24,24-24h192c13.232,0,24,10.768,24,24v96h16V40c0-22.056-17.944-40-40-40H40     C17.944,0,0,17.944,0,40v96h16V40z" fill="#A01D26"/>
			<path d="M464,88v49.472c-9.288,3.312-16,12.112-16,22.528c0,13.232,10.768,24,24,24s24-10.768,24-24     c0-10.416-6.712-19.216-16-22.528V88c0-22.056-17.944-40-40-40H288v16h152C453.232,64,464,74.768,464,88z M472,152     c4.416,0,8,3.584,8,8s-3.584,8-8,8c-4.416,0-8-3.584-8-8S467.584,152,472,152z" fill="#A01D26"/>
			<path d="M32,408v-49.472c9.288-3.312,16-12.112,16-22.528c0-13.232-10.768-24-24-24S0,322.768,0,336     c0,10.416,6.712,19.216,16,22.528V408c0,22.056,17.944,40,40,40h152v-16H56C42.768,432,32,421.232,32,408z M24,344     c-4.416,0-8-3.584-8-8c0-4.416,3.584-8,8-8s8,3.584,8,8C32,340.416,28.416,344,24,344z" fill="#A01D26"/>
			<rect x="288" y="80" width="16" height="16" fill="#A01D26"/>
			<rect x="320" y="80" width="16" height="16" fill="#A01D26"/>
			<rect x="352" y="80" width="16" height="16" fill="#A01D26"/>
			<rect x="384" y="80" width="16" height="16" fill="#A01D26"/>
			<rect x="416" y="80" width="16" height="16" fill="#A01D26"/>
			<rect x="64" y="400" width="16" height="16" fill="#A01D26"/>
			<rect x="96" y="400" width="16" height="16" fill="#A01D26"/>
			<rect x="128" y="400" width="16" height="16" fill="#A01D26"/>
			<rect x="160" y="400" width="16" height="16" fill="#A01D26"/>
			<rect x="192" y="400" width="16" height="16" fill="#A01D26"/>
		</g>
	</g>
</g>
<g>
</g>
<g>
</g>
<g>
</g>
<g>
</g>
<g>
</g>
<g>
</g>
<g>
</g>
<g>
</g>
<g>
</g>
<g>
</g>
<g>
</g>
<g>
</g>
<g>
</g>
<g>
</g>
<g>
</g>
</svg>
