<?xml version="1.0" encoding="iso-8859-1"?>
<!-- Generator: Adobe Illustrator 19.0.0, SVG Export Plug-In . SVG Version: 6.00 Build 0)  -->
<svg xmlns="http://www.w3.org/2000/svg" xmlns:xlink="http://www.w3.org/1999/xlink" version="1.1" id="Capa_1" x="0px" y="0px" viewBox="0 0 512 512" style="enable-background:new 0 0 512 512;" xml:space="preserve" width="512px" height="512px">
<g>
	<g>
		<g>
			<path d="M469.333,298.664h-64V95.998c0-5.896-4.771-10.667-10.667-10.667S384,90.102,384,95.998v202.667H42.667     C19.135,298.664,0,317.8,0,341.331v85.333c0,23.531,19.135,42.667,42.667,42.667h426.667c23.531,0,42.667-19.135,42.667-42.667     v-85.333C512,317.8,492.865,298.664,469.333,298.664z M490.667,426.664c0,11.76-9.573,21.333-21.333,21.333H42.667     c-11.76,0-21.333-9.573-21.333-21.333v-85.333c0-11.76,9.573-21.333,21.333-21.333h426.667c11.76,0,21.333,9.573,21.333,21.333     V426.664z" fill="#A01D26"/>
			<path d="M362.646,149.331c2.198,0,4.427-0.688,6.333-2.094c4.729-3.479,5.74-10.146,2.271-14.896     c-0.083-0.115-8.583-11.917-8.583-25.677c0-13.75,8.5-25.552,8.552-25.625c3.521-4.729,2.542-11.406-2.177-14.927     c-4.729-3.51-11.417-2.542-14.927,2.177c-0.521,0.708-12.781,17.406-12.781,38.375s12.25,37.677,12.781,38.375     C356.198,147.852,359.396,149.331,362.646,149.331z" fill="#A01D26"/>
			<path d="M330.656,170.654c2.521,0,5.052-0.885,7.083-2.698c4.396-3.906,4.792-10.635,0.896-15.042     c-0.177-0.208-18.635-21.385-18.635-46.25c0-24.865,18.458-46.042,18.635-46.25c3.896-4.406,3.5-11.135-0.896-15.042     c-4.385-3.917-11.115-3.531-15.031,0.854c-0.979,1.094-24.042,27.292-24.042,60.438c0,33.146,23.063,59.344,24.042,60.438     C324.813,169.456,327.729,170.654,330.656,170.654z" fill="#A01D26"/>
			<path d="M420.302,147.227c1.906,1.427,4.146,2.115,6.354,2.115c3.26,0,6.479-1.49,8.563-4.302     C435.75,144.341,448,127.633,448,106.664s-12.26-37.667-12.781-38.375c-3.521-4.74-10.177-5.708-14.927-2.177     c-4.719,3.521-5.698,10.198-2.177,14.927c0.083,0.115,8.552,11.865,8.552,25.625c0,13.531-8.229,25.188-8.573,25.667     C414.594,137.06,415.583,143.716,420.302,147.227z" fill="#A01D26"/>
			<path d="M451.594,167.956c2.031,1.813,4.563,2.698,7.083,2.698c2.927,0,5.844-1.198,7.948-3.552     c0.979-1.094,24.042-27.292,24.042-60.438c0-33.146-23.063-59.344-24.042-60.438c-3.917-4.385-10.646-4.771-15.031-0.854     c-4.396,3.906-4.792,10.635-0.896,15.042c0.177,0.208,18.635,21.385,18.635,46.25c0,24.865-18.458,46.042-18.635,46.25     C446.802,157.32,447.198,164.05,451.594,167.956z" fill="#A01D26"/>
			<path d="M448,383.998c-11.76,0-21.333,9.573-21.333,21.333c0,11.76,9.573,21.333,21.333,21.333     c11.76,0,21.333-9.573,21.333-21.333C469.333,393.571,459.76,383.998,448,383.998z" fill="#A01D26"/>
			<circle cx="394.667" cy="416" r="10.667" fill="#A01D26"/>
			<circle cx="352" cy="416" r="10.667" fill="#A01D26"/>
		</g>
	</g>
</g>
<g>
</g>
<g>
</g>
<g>
</g>
<g>
</g>
<g>
</g>
<g>
</g>
<g>
</g>
<g>
</g>
<g>
</g>
<g>
</g>
<g>
</g>
<g>
</g>
<g>
</g>
<g>
</g>
<g>
</g>
</svg>
