<?xml version="1.0" encoding="iso-8859-1"?>
<!-- Generator: Adobe Illustrator 17.1.0, SVG Export Plug-In . SVG Version: 6.00 Build 0)  -->
<!DOCTYPE svg PUBLIC "-//W3C//DTD SVG 1.1//EN" "http://www.w3.org/Graphics/SVG/1.1/DTD/svg11.dtd">
<svg xmlns="http://www.w3.org/2000/svg" xmlns:xlink="http://www.w3.org/1999/xlink" version="1.1" id="Capa_1" x="0px" y="0px" viewBox="0 0 290.26 290.26" style="enable-background:new 0 0 290.26 290.26;" xml:space="preserve" width="512px" height="512px">
<path d="M285.867,21.221c-5.856-5.858-15.354-5.858-21.213,0L161.809,124.065l-42.989-42.99  c4.357-19.859-1.539-41.378-17.316-56.393C90.278,13.999,75.721,8.115,60.518,8.115c-1.862,0-3.747,0.09-5.604,0.268  c-5.781,0.553-10.724,4.393-12.688,9.858c-1.964,5.465-0.597,11.573,3.51,15.68l18.071,18.071L43.875,71.924L25.804,53.852  c-4.105-4.105-10.214-5.474-15.68-3.51c-5.466,1.965-9.306,6.907-9.858,12.688c-1.681,17.571,4.661,34.952,17.397,47.688  c11.312,11.312,26.368,17.542,42.396,17.542c4.362,0,8.67-0.474,12.857-1.391l25.942,25.942L37.451,214.22  c-15.188,15.189-15.188,39.903,0.001,55.091c7.357,7.358,17.141,11.41,27.546,11.41s20.188-4.053,27.545-11.41l61.407-61.407  l20.569,20.569c-0.096,1.27-0.159,2.546-0.159,3.832c0,13.313,5.185,25.829,14.598,35.242c9.414,9.414,21.93,14.599,35.243,14.599  s25.829-5.185,35.242-14.598c9.414-9.414,14.599-21.93,14.599-35.243c0-13.313-5.185-25.828-14.599-35.242  c-9.413-9.413-21.929-14.598-35.242-14.598c-1.287,0-2.563,0.063-3.833,0.159l-37.345-37.346L285.867,42.434  C291.725,36.577,291.725,27.079,285.867,21.221z M71.328,248.097c-1.69,1.691-3.939,2.623-6.331,2.623  c-2.393,0-4.642-0.932-6.333-2.623c-3.491-3.491-3.491-9.173,0-12.665l85.803-85.802l12.664,12.665L71.328,248.097z   M210.171,218.275c3.747-3.747,8.729-5.811,14.029-5.811s10.282,2.063,14.029,5.811c3.747,3.748,5.812,8.73,5.812,14.029  c0,5.3-2.064,10.281-5.813,14.029c-3.747,3.747-8.729,5.812-14.028,5.812s-10.281-2.064-14.029-5.813  c-3.747-3.747-5.812-8.729-5.812-14.028C204.36,227.006,206.424,222.023,210.171,218.275z" fill="#A01D26"/>
<g>
</g>
<g>
</g>
<g>
</g>
<g>
</g>
<g>
</g>
<g>
</g>
<g>
</g>
<g>
</g>
<g>
</g>
<g>
</g>
<g>
</g>
<g>
</g>
<g>
</g>
<g>
</g>
<g>
</g>
</svg>
