<?xml version="1.0" encoding="iso-8859-1"?>
<!-- Generator: Adobe Illustrator 19.0.0, SVG Export Plug-In . SVG Version: 6.00 Build 0)  -->
<svg version="1.1" id="Capa_1" xmlns="http://www.w3.org/2000/svg" xmlns:xlink="http://www.w3.org/1999/xlink" x="0px" y="0px"
	 viewBox="0 0 511.999 511.999" style="enable-background:new 0 0 511.999 511.999;" xml:space="preserve">
<g>
	<g>
		<polygon points="304.89,420.975 331.951,420.975 331.951,405.118 		"/>
	</g>
</g>
<g>
	<g>
		<path d="M376.945,31.033h-14.998v185.089c22.711-22.757,45.172-45.26,59.991-60.103V76.026
			C421.938,51.177,401.794,31.033,376.945,31.033z"/>
	</g>
</g>
<g>
	<g>
		<path d="M366.868,381.328c-1.747,1.718-3.315,3.089-4.921,4.527v50.118c0,8.283-6.715,14.998-14.998,14.998H74.989
			c-8.283,0-14.998-6.715-14.998-14.998V31.033H44.993C20.144,31.033,0,51.177,0,76.026v389.943
			c0,24.849,20.144,45.993,44.993,45.993h331.951c24.849,0,44.993-21.144,44.993-45.993V326.214
			C393.315,354.886,369.223,379.009,366.868,381.328z"/>
	</g>
</g>
<g>
	<g>
		<path d="M503.226,159.715c-11.621-11.623-30.972-11.623-42.595-0.001c-0.3,0.3-4.383,4.388-10.594,10.613l42.595,42.595
			c5.78-5.791,9.746-9.764,10.594-10.614C514.924,190.61,514.924,171.413,503.226,159.715z"/>
	</g>
</g>
<g>
	<g>
		<path d="M428.849,191.554c-38.563,38.638-100.763,100.96-120.925,121.178l42.562,42.562
			c17.541-17.518,81.447-81.545,120.962-121.141L428.849,191.554z"/>
	</g>
</g>
<g>
	<g>
		<path d="M289.416,336.64l-27.054,45.94c-2.401,10.798,7.198,20.397,17.998,17.999l46.028-26.967L289.416,336.64z"/>
	</g>
</g>
<g>
	<g>
		<path d="M241.965,0.037h-60.991c-16.567,0-29.996,14.429-29.996,30.995V46.03c0,8.283,6.715,14.998,14.998,14.998h90.987
			c8.283,0,14.998-6.715,14.998-14.998V31.033C271.96,14.466,258.531,0.037,241.965,0.037z"/>
	</g>
</g>
<g>
	<g>
		<path d="M301.955,31.033V46.03c0,24.81-20.183,44.993-44.993,44.993h-90.987c-24.81,0-45.993-20.183-45.993-44.993V31.033H89.987
			v389.943h158.864c-2.521-2.036-4.866-4.333-6.944-6.928c-11.006-13.705-11.239-27.041-7.792-42.606l33.788-57.399
			c3.983-6.942,6.166-9.74,11.98-15.657c0.709-0.731,23.76-23.839,52.067-52.206V31.033H301.955z M237.571,326.594l-60.992,59.992
			c-2.93,2.93-6.767,4.394-10.603,4.394c-3.836,0-7.675-1.465-10.603-4.394l-30.995-29.996c-5.858-5.858-5.858-15.35,0-21.208
			s16.35-5.858,22.208,0l19.391,19.391l50.388-49.388c5.858-5.858,15.35-5.858,21.208,0
			C243.429,311.245,243.429,320.736,237.571,326.594z M237.571,236.607l-60.991,59.991c-2.93,2.93-6.767,4.394-10.603,4.394
			s-7.675-1.465-10.603-4.394l-30.995-29.996c-5.86-5.858-5.86-15.349-0.001-21.207c5.858-5.858,16.35-5.858,22.208,0l19.391,19.391
			l50.388-49.388c5.858-5.858,15.35-5.858,21.208,0C243.429,221.258,243.429,230.749,237.571,236.607z M237.571,146.621
			l-60.991,59.991c-2.93,2.93-6.767,4.394-10.603,4.394s-7.675-1.465-10.603-4.394l-30.995-29.996
			c-5.86-5.858-5.86-15.349-0.001-21.207c5.858-5.858,16.35-5.858,22.208,0l19.391,19.391l50.388-49.388
			c5.858-5.858,15.35-5.858,21.208,0C243.429,131.271,243.429,140.763,237.571,146.621z"/>
	</g>
</g>
<g>
</g>
<g>
</g>
<g>
</g>
<g>
</g>
<g>
</g>
<g>
</g>
<g>
</g>
<g>
</g>
<g>
</g>
<g>
</g>
<g>
</g>
<g>
</g>
<g>
</g>
<g>
</g>
<g>
</g>
</svg>
